<svg width="560" height="425" viewBox="0 0 560 425" fill="none" xmlns="http://www.w3.org/2000/svg">
<path d="M559.455 336.347H0V336.604H559.455V336.347Z" fill="#EBEBEB"/>
<path d="M503.398 352.843H466.34V353.1H503.398V352.843Z" fill="#EBEBEB"/>
<path d="M370.605 355.631H360.882V355.888H370.605V355.631Z" fill="#EBEBEB"/>
<path d="M465.221 343.33H411.883V343.586H465.221V343.33Z" fill="#EBEBEB"/>
<path d="M85.194 345.049H58.6981V345.305H85.194V345.049Z" fill="#EBEBEB"/>
<path d="M124.076 345.049H95.1521V345.305H124.076V345.049Z" fill="#EBEBEB"/>
<path d="M219.429 349.377H147.103V349.633H219.429V349.377Z" fill="#EBEBEB"/>
<path d="M265.182 290.621H49.1313C47.4388 290.618 45.8166 290 44.6208 288.902C43.425 287.805 42.7534 286.318 42.7534 284.767V6.48321C42.7681 4.94126 43.4463 3.4669 44.6405 2.38039C45.8346 1.29387 47.4483 0.68294 49.1313 0.680298H265.182C266.876 0.680298 268.501 1.29708 269.699 2.39495C270.898 3.49281 271.571 4.98184 271.571 6.53447V284.767C271.571 286.32 270.898 287.809 269.699 288.906C268.501 290.004 266.876 290.621 265.182 290.621ZM49.1313 0.885348C47.5129 0.888065 45.9619 1.47904 44.8186 2.52854C43.6752 3.57805 43.0332 5.00034 43.0332 6.48321V284.767C43.0332 286.25 43.6752 287.671 44.8186 288.721C45.9619 289.77 47.5129 290.362 49.1313 290.365H265.182C266.801 290.362 268.353 289.771 269.498 288.722C270.643 287.672 271.288 286.25 271.291 284.767V6.48321C271.288 4.9994 270.643 3.57713 269.498 2.52792C268.353 1.4787 266.801 0.888059 265.182 0.885348H49.1313Z" fill="#EBEBEB"/>
<path d="M507.214 290.621H291.152C289.458 290.618 287.835 290.001 286.637 288.903C285.441 287.806 284.766 286.319 284.764 284.767V6.48321C284.781 4.94032 285.462 3.46598 286.657 2.37974C287.853 1.29351 289.469 0.682911 291.152 0.680298H507.214C508.895 0.685634 510.505 1.29776 511.697 2.38398C512.889 3.47021 513.565 4.94303 513.581 6.48321V284.767C513.581 286.316 512.911 287.801 511.717 288.899C510.523 289.996 508.904 290.615 507.214 290.621ZM291.152 0.885348C289.533 0.888059 287.98 1.4787 286.835 2.52792C285.691 3.57713 285.046 4.9994 285.043 6.48321V284.767C285.046 286.25 285.691 287.672 286.835 288.722C287.98 289.771 289.533 290.362 291.152 290.365H507.214C508.833 290.362 510.385 289.771 511.53 288.722C512.675 287.672 513.32 286.25 513.323 284.767V6.48321C513.32 4.9994 512.675 3.57713 511.53 2.52792C510.385 1.4787 508.833 0.888059 507.214 0.885348H291.152Z" fill="#EBEBEB"/>
<path d="M493.898 27.3379H317.144V336.347H493.898V27.3379Z" fill="#EBEBEB"/>
<path d="M480.751 37.4145H330.291V336.346H480.751V37.4145Z" fill="#F5F5F5"/>
<path d="M426.686 62.2039H384.38V72.9178H426.686V62.2039Z" fill="white"/>
<path d="M445.741 168.636H468.69C469.639 168.636 470.55 168.982 471.221 169.597C471.892 170.212 472.27 171.047 472.27 171.917C472.27 172.787 471.892 173.621 471.221 174.237C470.55 174.852 469.639 175.198 468.69 175.198H445.741C444.791 175.198 443.88 174.852 443.209 174.237C442.537 173.621 442.16 172.787 442.16 171.917C442.16 171.047 442.537 170.212 443.209 169.597C443.88 168.982 444.791 168.636 445.741 168.636Z" fill="white"/>
<path d="M196.302 60.217H78.7491V147.025H196.302V60.217Z" fill="#EBEBEB"/>
<path d="M189.98 141.24V65.9977H85.0483V141.24H189.98Z" fill="#FAFAFA"/>
<path d="M177.75 104.608V101.009H97.2896V104.608H177.75Z" fill="#E0E0E0"/>
<path d="M177.75 112.8V109.202H97.2896V112.8H177.75Z" fill="#E0E0E0"/>
<path d="M177.75 120.984V117.386H97.2896V120.984H177.75Z" fill="#E0E0E0"/>
<path d="M157.576 129.175V125.576H117.464V129.175H157.576Z" fill="#E0E0E0"/>
<path d="M97.3456 65.9994C97.3456 67.4771 97.0267 68.9401 96.4072 70.3044C95.7878 71.6686 94.8799 72.9073 93.7359 73.9487C92.592 74.9902 91.2345 75.8142 89.7418 76.373C88.2489 76.932 86.6502 77.2149 85.0376 77.2054C82.8125 77.2104 80.6291 76.6534 78.7269 75.5958V60.217H95.5106C96.6866 61.955 97.3211 63.9546 97.3456 65.9994Z" fill="#EBEBEB"/>
<path d="M196.302 60.217V75.5958C193.963 76.885 191.219 77.4201 188.51 77.1159C185.801 76.8117 183.281 75.6856 181.35 73.917C179.42 72.1483 178.191 69.8388 177.859 67.3561C177.527 64.8734 178.111 62.3604 179.518 60.217H196.302Z" fill="#EBEBEB"/>
<path d="M97.3457 141.251C97.3496 143.285 96.7459 145.282 95.6002 147.023H78.8165V131.645C80.6729 130.626 82.7907 130.077 84.9542 130.053C87.1177 130.028 89.2497 130.529 91.1329 131.506C93.016 132.483 94.5831 133.899 95.6744 135.61C96.7658 137.322 97.3424 139.268 97.3457 141.251Z" fill="#EBEBEB"/>
<path d="M196.302 131.634V147.013H179.518C178.364 145.274 177.755 143.277 177.761 141.241C177.763 139.256 178.34 137.307 179.433 135.592C180.525 133.878 182.095 132.46 183.981 131.482C185.866 130.504 188.001 130.002 190.167 130.027C192.334 130.052 194.454 130.603 196.313 131.624L196.302 131.634Z" fill="#EBEBEB"/>
<path d="M147.807 85.8621C148.728 80.6587 144.872 75.7557 139.193 74.911C133.514 74.0663 128.163 77.5999 127.242 82.8034C126.32 88.0068 130.176 92.9098 135.855 93.7548C141.534 94.5989 146.884 91.0656 147.807 85.8621Z" fill="#E0E0E0"/>
<path d="M291.297 213.061H58.6981V220.729H291.297V213.061Z" fill="#EBEBEB"/>
<path d="M289.283 220.729H213.711V336.347H289.283V220.729Z" fill="#F5F5F5"/>
<path d="M137.146 220.729H61.574V336.347H137.146V220.729Z" fill="#F5F5F5"/>
<path d="M64.1587 220.729H61.574V336.347H64.1587V220.729Z" fill="#EBEBEB"/>
<path d="M216.296 220.729H213.711V336.347H216.296V220.729Z" fill="#EBEBEB"/>
<path d="M101.261 194.574H87.3641L88.483 213.059H100.142L101.261 194.574Z" fill="#F0F0F0"/>
<path d="M221.913 205.043H149.308V213.06H221.913V205.043Z" fill="#F0F0F0"/>
<path d="M221.924 205.988H188.447V212.129H221.924V205.988Z" fill="#FAFAFA"/>
<path d="M279.728 382.645C399.543 382.645 496.674 377.449 496.674 371.039C496.674 364.63 399.543 359.434 279.728 359.434C159.912 359.434 62.7822 364.63 62.7822 371.039C62.7822 377.449 159.912 382.645 279.728 382.645Z" fill="#F5F5F5"/>
<path d="M381.224 299.251C400.801 299.251 416.671 284.71 416.671 266.772C416.671 248.834 400.801 234.292 381.224 234.292C361.647 234.292 345.776 248.834 345.776 266.772C345.776 284.71 361.647 299.251 381.224 299.251Z" fill="white"/>
<path d="M381.224 299.652C374.126 299.654 367.187 297.727 361.285 294.115C355.382 290.504 350.781 285.37 348.064 279.362C345.346 273.354 344.634 266.742 346.017 260.364C347.401 253.986 350.817 248.126 355.835 243.526C360.853 238.927 367.247 235.794 374.208 234.525C381.168 233.255 388.385 233.906 394.942 236.394C401.499 238.883 407.104 243.097 411.048 248.504C414.991 253.911 417.096 260.269 417.096 266.772C417.087 275.488 413.305 283.845 406.58 290.009C399.855 296.173 390.736 299.641 381.224 299.652ZM381.224 234.702C374.299 234.702 367.529 236.584 361.771 240.109C356.014 243.635 351.527 248.646 348.877 254.508C346.227 260.37 345.534 266.821 346.886 273.045C348.238 279.268 351.574 284.983 356.471 289.47C361.368 293.956 367.608 297.01 374.4 298.247C381.192 299.484 388.232 298.847 394.629 296.418C401.027 293.988 406.493 289.875 410.34 284.597C414.185 279.321 416.236 273.118 416.234 266.772C416.225 258.268 412.533 250.114 405.97 244.101C399.405 238.088 390.506 234.708 381.224 234.702Z" fill="#018762"/>
<path d="M386.93 248.358H375.517V285.185H386.93V248.358Z" fill="#018762"/>
<path d="M401.319 272.012V261.554H361.128V272.012H401.319Z" fill="#018762"/>
<path d="M141.107 21.2569L140.346 20.5085C145.525 16.022 152.098 13.1202 159.155 12.2039L159.311 13.2292C152.482 14.1117 146.121 16.917 141.107 21.2569Z" fill="#018762"/>
<path d="M132.827 32.4626L131.786 32.0935C132.916 29.4817 134.421 27.0199 136.262 24.7733L137.157 25.3883C135.382 27.5625 133.926 29.941 132.827 32.4626Z" fill="#018762"/>
<path d="M164.044 71.7397C181.001 71.7397 194.747 59.1442 194.747 43.6069C194.747 28.0695 181.001 15.4741 164.044 15.4741C147.087 15.4741 133.342 28.0695 133.342 43.6069C133.342 59.1442 147.087 71.7397 164.044 71.7397Z" fill="#018762"/>
<path d="M182.382 30.9341C181.2 29.8093 179.785 28.9118 178.219 28.2942C176.654 27.6764 174.97 27.3509 173.265 27.3366C171.561 27.3222 169.871 27.6194 168.293 28.2108C166.716 28.8021 165.283 29.6756 164.077 30.7803C162.873 29.6759 161.441 28.8025 159.864 28.2113C158.288 27.6202 156.598 27.323 154.895 27.3374C153.192 27.3517 151.509 27.6771 149.944 28.2948C148.379 28.9124 146.965 29.8097 145.784 30.9341C143.468 33.2292 142.221 36.2611 142.306 39.3856C142.391 42.51 143.804 45.4807 146.242 47.6663L160.788 60.9944C161.224 61.3944 161.742 61.7116 162.312 61.928C162.882 62.1444 163.494 62.2558 164.111 62.2558C164.728 62.2558 165.339 62.1444 165.909 61.928C166.479 61.7116 166.998 61.3944 167.434 60.9944L181.98 47.6663C184.41 45.4739 185.812 42.4995 185.888 39.3751C185.963 36.2507 184.705 33.2226 182.382 30.9341Z" fill="white"/>
<path d="M164.045 55.9009C163.82 55.8939 163.602 55.8245 163.419 55.7018C163.237 55.5793 163.101 55.4092 163.027 55.214L156.548 37.8565L153.841 45.1153C153.763 45.317 153.62 45.4917 153.429 45.6148C153.238 45.738 153.01 45.8035 152.777 45.8022H141.935C141.639 45.8022 141.354 45.6942 141.144 45.5019C140.934 45.3096 140.816 45.0489 140.816 44.7769C140.816 44.505 140.934 44.2442 141.144 44.052C141.354 43.8597 141.639 43.7517 141.935 43.7517H152.005L155.519 34.3502C155.594 34.1487 155.738 33.974 155.927 33.8504C156.117 33.7267 156.343 33.6603 156.576 33.6603C156.809 33.6603 157.035 33.7267 157.225 33.8504C157.414 33.974 157.557 34.1487 157.633 34.3502L164.223 52.0152L170.623 38.2051C170.705 38.0291 170.837 37.8772 171.008 37.7667C171.177 37.6563 171.378 37.5915 171.586 37.5797C171.796 37.5687 172.005 37.6118 172.188 37.7044C172.372 37.7968 172.524 37.9348 172.626 38.1026L176.005 43.7415H186.199C186.496 43.7415 186.781 43.8495 186.991 44.0418C187.2 44.234 187.318 44.4948 187.318 44.7667C187.318 45.0386 187.2 45.2994 186.991 45.4917C186.781 45.6839 186.496 45.7919 186.199 45.7919H175.357C175.157 45.7935 174.96 45.7458 174.787 45.6538C174.613 45.5618 174.471 45.429 174.372 45.2691L171.72 40.922L165.074 55.2755C164.988 55.4608 164.845 55.6189 164.662 55.7301C164.479 55.8414 164.265 55.9008 164.045 55.9009Z" fill="#018762"/>
<path d="M334.399 335.115H217.618C215.715 335.135 213.828 334.791 212.079 334.106C210.328 333.422 208.753 332.411 207.452 331.137C206.152 329.865 205.154 328.358 204.523 326.714C203.893 325.068 203.642 323.321 203.788 321.582L222.664 65.2699C222.994 61.6094 224.797 58.1919 227.722 55.6814C230.648 53.1709 234.489 51.7467 238.496 51.6853H355.299C357.207 51.6654 359.099 52.0103 360.853 52.6982C362.608 53.386 364.186 54.4016 365.487 55.6801C366.789 56.9585 367.785 58.4717 368.412 60.123C369.039 61.7743 369.283 63.5272 369.129 65.2699L350.22 321.582C349.879 325.233 348.073 328.638 345.15 331.137C342.228 333.637 338.396 335.055 334.399 335.115Z" fill="#263238"/>
<path d="M360.29 156.068H357.347C356.814 156.073 356.285 155.977 355.796 155.785C355.305 155.593 354.865 155.309 354.501 154.953C354.138 154.595 353.861 154.172 353.685 153.711C353.51 153.25 353.443 152.76 353.486 152.274L357.1 103.277C357.184 102.253 357.686 101.294 358.504 100.591C359.322 99.889 360.399 99.4937 361.52 99.4835H364.463C364.996 99.478 365.525 99.5738 366.014 99.7655C366.504 99.9581 366.945 100.242 367.309 100.598C367.672 100.956 367.949 101.378 368.125 101.84C368.299 102.3 368.367 102.791 368.324 103.277L364.709 152.274C364.626 153.299 364.124 154.257 363.306 154.959C362.488 155.662 361.411 156.057 360.29 156.068Z" fill="#263238"/>
<path d="M220.963 123.383H218.032C217.598 123.388 217.168 123.311 216.768 123.156C216.369 123.001 216.009 122.772 215.711 122.482C215.413 122.193 215.184 121.851 215.039 121.476C214.894 121.102 214.834 120.704 214.865 120.308L216.174 102.611C216.257 101.781 216.672 101.008 217.338 100.439C218.005 99.8715 218.878 99.5499 219.788 99.5361H222.731C223.163 99.5333 223.591 99.6125 223.989 99.7692C224.386 99.9249 224.745 100.154 225.04 100.444C225.336 100.732 225.564 101.074 225.71 101.446C225.856 101.819 225.915 102.217 225.887 102.611L224.577 120.308C224.497 121.139 224.083 121.914 223.416 122.481C222.748 123.05 221.874 123.371 220.963 123.383Z" fill="#018762"/>
<path d="M218.636 154.981H215.693C215.261 154.985 214.831 154.907 214.434 154.751C214.035 154.595 213.677 154.366 213.38 154.076C213.084 153.787 212.855 153.445 212.711 153.072C212.566 152.698 212.507 152.301 212.538 151.905L213.847 134.21C213.93 133.378 214.345 132.605 215.012 132.037C215.679 131.469 216.55 131.148 217.462 131.134H220.426C220.859 131.131 221.287 131.21 221.684 131.367C222.082 131.523 222.439 131.752 222.736 132.041C223.031 132.33 223.259 132.672 223.406 133.044C223.551 133.417 223.611 133.814 223.581 134.21L222.273 151.905C222.192 152.74 221.775 153.518 221.102 154.086C220.43 154.655 219.551 154.974 218.636 154.981Z" fill="#018762"/>
<path d="M331.925 335.117H215.144C213.241 335.137 211.355 334.793 209.605 334.108C207.855 333.424 206.279 332.413 204.978 331.14C203.678 329.867 202.681 328.36 202.05 326.715C201.418 325.071 201.168 323.323 201.315 321.585L220.202 65.272C220.543 61.6103 222.358 58.1956 225.296 55.6924C228.232 53.1891 232.08 51.7763 236.09 51.7285H352.826C354.73 51.709 356.617 52.0529 358.369 52.7383C360.119 53.4236 361.695 54.4355 362.996 55.7094C364.297 56.9834 365.295 58.4915 365.924 60.1379C366.555 61.7841 366.804 63.5327 366.656 65.272L347.758 321.585C347.417 325.236 345.609 328.643 342.684 331.143C339.759 333.644 335.924 335.06 331.925 335.117Z" fill="#018762"/>
<path opacity="0.3" d="M202.545 318.713L220.985 68.593H365.391L346.952 318.713H202.545Z" fill="white"/>
<path d="M240.354 32.5557C233.461 35.0266 211.741 49.3405 221.953 70.967C225.297 77.3068 243.375 74.5145 244.874 70.967C246.374 67.4197 249.898 29.1314 240.354 32.5557Z" fill="#263238"/>
<path opacity="0.1" d="M259.553 318.713L311.091 68.593H343.438L291.901 318.713H259.553Z" fill="white"/>
<path opacity="0.1" d="M235.117 318.713L286.654 68.593H303.046L251.51 318.713H235.117Z" fill="white"/>
<path d="M279.885 58.0126H308.048C308.283 58.0089 308.517 58.0505 308.733 58.1347C308.95 58.2189 309.144 58.3439 309.305 58.5014C309.464 58.6589 309.587 58.8456 309.664 59.0493C309.741 59.253 309.769 59.4691 309.749 59.6838C309.71 60.1355 309.489 60.5578 309.129 60.8686C308.77 61.1794 308.297 61.3564 307.802 61.3651H279.639C279.404 61.3674 279.17 61.3244 278.954 61.2391C278.737 61.1537 278.542 61.0278 278.383 60.8695C278.222 60.7111 278.1 60.5239 278.023 60.3197C277.947 60.1155 277.917 59.8988 277.938 59.6838C277.977 59.233 278.198 58.8119 278.558 58.5027C278.918 58.1937 279.392 58.0189 279.885 58.0126Z" fill="white"/>
<path d="M274.022 359.773L264.152 360.634L260.595 339.771L270.463 338.899L274.022 359.773Z" fill="#895A30"/>
<path d="M263.022 356.217L273.361 353.275C273.539 353.217 273.735 353.227 273.906 353.299C274.077 353.372 274.21 353.503 274.279 353.664L277.636 361.179C277.719 361.381 277.756 361.595 277.744 361.811C277.732 362.026 277.672 362.237 277.566 362.429C277.461 362.622 277.314 362.792 277.133 362.931C276.953 363.068 276.742 363.17 276.517 363.23C272.779 364.255 269.221 364.491 264.711 366.305C259.441 368.356 257.238 371.104 251.565 371.104C247.503 371.104 246.586 367.69 248.309 367.218C256.141 365.044 255.112 363.26 260.796 357.652C261.387 357.002 262.155 356.507 263.022 356.217Z" fill="#263238"/>
<path opacity="0.2" d="M260.595 339.771L262.429 350.536L272.309 349.664L270.475 338.899L260.595 339.771Z" fill="black"/>
<path d="M267.734 76.1393C254.788 74.7449 241.909 75.6779 228.986 77.9745C226.832 78.3575 224.868 79.359 223.376 80.8337C221.886 82.3084 220.947 84.1797 220.695 86.1765C219.296 97.5153 217.696 122.932 223.94 160.845L276.841 156.744C276.942 149.865 271.605 118.523 276.013 86.0022C276.194 84.8542 276.121 83.6846 275.801 82.5628C275.48 81.4408 274.917 80.3891 274.145 79.4698C273.373 78.5505 272.408 77.7821 271.306 77.2101C270.206 76.6381 268.991 76.274 267.734 76.1393Z" fill="white"/>
<path d="M236.93 85.8605L238.821 89.3258C238.909 89.5006 239.049 89.6492 239.226 89.7543C239.401 89.8595 239.606 89.917 239.817 89.9204L241.864 90.023C242.23 90.0375 242.59 89.9361 242.883 89.736L246.407 87.3266L242.055 84.4251L236.93 85.8605Z" fill="#263238"/>
<path d="M241.932 89.0262C241.185 88.7095 240.34 88.6476 239.549 88.852C237.881 94.2349 236.058 109.685 235.867 116.533C240.925 130.036 242.581 131.4 242.581 131.4L245.143 115.149C245.143 115.149 242.267 98.5307 241.932 89.0262Z" fill="#263238"/>
<path d="M256.533 52.7626C255.325 59.4472 254.295 71.6578 259.531 75.9741C255.694 79.665 250.67 83.9403 242.054 84.4223C233.438 84.9041 234.77 79.4396 236.952 76.5175C244.997 74.5491 244.605 69.0538 243.028 63.9172L256.533 52.7626Z" fill="#895A30"/>
<path d="M261.725 75.3905C261.114 75.1493 260.482 74.9606 259.834 74.8267C259.676 74.7882 259.507 74.7985 259.356 74.8559C259.204 74.9133 259.077 75.0146 258.994 75.1445C258.166 76.4363 255.637 82.2085 242.054 84.4229C244.292 85.6328 247.257 89.3852 248.533 91.1896C252.605 89.2519 263.202 83.4593 262.195 75.9647C262.174 75.8408 262.12 75.7236 262.039 75.6234C261.956 75.5233 261.849 75.4433 261.725 75.3905Z" fill="#F5F5F5"/>
<path d="M237.03 76.8271C237.059 76.7105 237.056 76.5891 237.02 76.474C236.984 76.359 236.918 76.2539 236.827 76.1684C236.736 76.0828 236.623 76.0195 236.498 75.9841C236.374 75.9487 236.241 75.9425 236.113 75.9659C235.643 76.0495 235.179 76.1626 234.726 76.3042C234.621 76.3418 234.523 76.3937 234.434 76.458C233.394 77.3397 227.721 84.8446 233.036 90.914C234.155 89.2633 238.015 85.5212 242.054 84.4242C238.228 82.8453 236.348 79.9029 237.03 76.8271Z" fill="#F5F5F5"/>
<path opacity="0.2" d="M251.028 57.3176L243.039 63.9203C243.425 65.1128 243.694 66.3342 243.844 67.5702C246.933 67.0882 251.084 63.8792 251.308 60.9061C251.459 59.7044 251.364 58.4874 251.028 57.3176Z" fill="black"/>
<path d="M262.34 43.864C260.427 52.7938 259.79 58.0944 254.218 62.2056C245.815 68.3572 234.435 63.0463 233.428 53.8396C232.522 45.5453 235.8 32.3094 245.837 29.7257C248.026 29.1353 250.344 29.0783 252.565 29.5604C254.785 30.0426 256.829 31.0473 258.496 32.4751C260.163 33.9029 261.394 35.7045 262.069 37.7019C262.743 39.6992 262.837 41.8232 262.34 43.864Z" fill="#895A30"/>
<path d="M259.172 71.7993C250.97 72.1991 255.47 47.3915 256.958 44.9411C258.447 42.4908 255.414 38.441 257.394 36.3392C253.859 37.6311 250.133 36.5648 245.4 33.5506C241.73 31.2027 237.131 40.5838 232.655 35.8779C228.425 31.4385 232.354 24.7437 242.513 23.6672C252.673 22.5907 256.222 23.667 261.188 28.5884C267.857 28.004 265.54 33.038 264.231 34.0632C264.231 20.6442 328.617 61.8178 259.172 71.7993Z" fill="#263238"/>
<path d="M241.686 53.4006C242.577 53.542 243.491 53.5168 244.371 53.3265C245.252 53.1362 246.081 52.7848 246.811 52.2934C246.832 52.2742 246.85 52.2512 246.862 52.2256C246.873 52.2 246.88 52.1725 246.88 52.1447C246.88 52.1169 246.873 52.0894 246.862 52.0638C246.85 52.0382 246.832 52.0152 246.811 51.996C246.766 51.9578 246.709 51.9365 246.648 51.9365C246.588 51.9365 246.529 51.9578 246.486 51.996C245.669 52.526 244.73 52.8751 243.742 53.0156C242.753 53.1562 241.743 53.0844 240.791 52.806C240.729 52.7921 240.666 52.7991 240.61 52.8254C240.554 52.8519 240.511 52.896 240.488 52.9495C240.471 53.0039 240.477 53.0624 240.507 53.1123C240.537 53.1622 240.586 53.1994 240.645 53.2161C240.986 53.306 241.334 53.3677 241.686 53.4006Z" fill="#263238"/>
<path d="M264.321 53.993C262.788 55.8021 260.542 56.9876 258.066 57.2943C254.81 57.6839 253.724 54.9054 255.09 52.3115C256.332 49.974 259.566 46.9598 262.564 47.7697C265.563 48.5796 266.201 51.7375 264.321 53.993Z" fill="#895A30"/>
<path d="M261.087 248.147C261.479 221.379 265.216 157.618 265.216 157.618L223.973 160.807C223.973 160.807 232.175 226.515 237.12 253.828C242.267 282.216 258.055 348.724 258.055 348.724L274.839 347.412C274.839 347.412 268.707 268.848 261.087 248.147Z" fill="#263238"/>
<path d="M257.048 349.142L276.953 347.594L276.17 341.708L255.426 342.98L257.048 349.142Z" fill="#018762"/>
<path d="M247.638 44.3987C247.537 45.1266 247.023 45.6803 246.519 45.629C246.016 45.5777 245.668 44.9421 245.78 44.2039C245.892 43.4657 246.396 42.9223 246.899 42.9736C247.403 43.0249 247.75 43.6707 247.638 44.3987Z" fill="#263238"/>
<path d="M238.508 43.7405C238.407 44.4787 237.892 45.022 237.389 44.9708C236.885 44.9195 236.538 44.2839 236.65 43.5559C236.762 42.828 237.265 42.2743 237.769 42.3257C238.272 42.3769 238.62 42.9715 238.508 43.7405Z" fill="#263238"/>
<path d="M241.081 44.6043C239.733 46.5016 238.115 48.2256 236.27 49.7306C237.456 50.8687 239.906 50.5611 239.906 50.5611L241.081 44.6043Z" fill="#77421A"/>
<path opacity="0.4" d="M232.734 43.9259C232.567 45.0947 233.853 46.0686 235.632 46.2738C237.411 46.4788 239.055 45.5868 239.213 44.418" fill="#018762"/>
<path opacity="0.4" d="M243.307 45.0129C243.061 46.1715 244.303 47.2172 246.049 47.5248C247.794 47.8324 249.507 47.0122 249.742 45.8639" fill="#018762"/>
<path d="M246.742 47.843C246.541 47.8532 246.339 47.8532 246.139 47.843C245.278 47.7487 244.47 47.4161 243.822 46.8895C243.539 46.6681 243.319 46.3877 243.178 46.072C243.038 45.7562 242.983 45.4143 243.017 45.0748C242.449 44.8483 241.843 44.7097 241.226 44.6647C240.605 44.5228 239.956 44.5228 239.335 44.6647C239.179 45.9155 237.478 46.7768 235.575 46.5614C234.716 46.4753 233.905 46.1456 233.26 45.6182C232.978 45.3957 232.758 45.1151 232.619 44.7997C232.479 44.4842 232.422 44.1428 232.455 43.8035L232.991 43.8651C232.968 44.1272 233.015 44.3905 233.126 44.633C233.237 44.8755 233.409 45.0903 233.629 45.2594C234.193 45.714 234.896 45.997 235.643 46.0693C237.254 46.2641 238.686 45.5772 238.831 44.5519C238.91 43.9779 240.208 44.0189 241.282 44.1419C242.357 44.2649 243.632 44.5417 243.52 45.1056C243.496 45.3679 243.543 45.6314 243.654 45.8741C243.764 46.1167 243.937 46.3314 244.158 46.4999C244.728 46.9485 245.429 47.234 246.175 47.3215C246.921 47.4089 247.678 47.2945 248.353 46.992C248.615 46.8809 248.842 46.7138 249.017 46.505C249.193 46.2962 249.31 46.0519 249.36 45.7925V45.5465L263.168 47.1766L263.101 47.6688L249.808 46.1001C249.712 46.3854 249.553 46.6499 249.341 46.8772C249.129 47.1045 248.87 47.2901 248.577 47.4226C248.012 47.6969 247.383 47.8412 246.742 47.843Z" fill="#263238"/>
<path d="M251.151 41.1798C251.23 41.18 251.309 41.1586 251.374 41.1184C251.483 41.0603 251.563 40.9657 251.596 40.8545C251.63 40.7433 251.615 40.6246 251.554 40.5237C251.207 39.9274 250.704 39.4188 250.092 39.0432C249.479 38.6676 248.774 38.4366 248.041 38.3707C247.915 38.3651 247.791 38.4049 247.698 38.4815C247.603 38.5582 247.545 38.6656 247.537 38.7808C247.531 38.8933 247.573 39.0036 247.654 39.0879C247.736 39.1723 247.851 39.2239 247.973 39.2319C248.554 39.2943 249.109 39.4857 249.591 39.7894C250.073 40.0932 250.466 40.5001 250.737 40.9748C250.779 41.04 250.841 41.0936 250.913 41.1297C250.986 41.1657 251.068 41.1831 251.151 41.1798Z" fill="#263238"/>
<path d="M235.554 40.019C235.632 40.026 235.71 40.0156 235.781 39.9888C235.854 39.962 235.917 39.9196 235.968 39.8652C236.33 39.4311 236.797 39.0807 237.334 38.8421C237.87 38.6035 238.46 38.4834 239.056 38.4914C239.118 38.497 239.181 38.4914 239.24 38.4748C239.299 38.4583 239.354 38.4311 239.403 38.3949C239.45 38.3587 239.489 38.3141 239.519 38.2638C239.548 38.2135 239.565 38.1585 239.571 38.1018C239.579 38.0465 239.574 37.9904 239.558 37.9367C239.542 37.8829 239.515 37.8326 239.477 37.7888C239.44 37.7448 239.393 37.7082 239.34 37.681C239.287 37.6538 239.229 37.6365 239.168 37.6302C238.417 37.6121 237.671 37.7558 236.991 38.0495C236.311 38.3433 235.715 38.7791 235.252 39.3218C235.172 39.409 235.133 39.5215 235.144 39.6348C235.155 39.7482 235.213 39.8531 235.308 39.9267C235.381 39.9748 235.465 40.0065 235.554 40.019Z" fill="#263238"/>
<path d="M295.449 243.828C286.889 203.515 284.964 171.989 276.841 156.682L236.885 160.784C236.885 160.784 260.684 220.853 272.309 246.494C284.383 273.151 308.216 318.692 308.216 318.692H328.177C328.177 318.692 309.547 262.19 295.449 243.828Z" fill="#263238"/>
<path d="M168.799 91.2213L164.481 88.7198C163.779 88.3059 162.943 88.1277 162.114 88.2156C161.286 88.3036 160.517 88.652 159.938 89.2017L157.006 92.0313C156.69 92.3367 156.446 92.6979 156.289 93.0932C156.132 93.4885 156.064 93.9096 156.092 94.3289C156.12 94.7491 156.24 95.1591 156.448 95.5351C156.655 95.9101 156.944 96.2427 157.297 96.5118L159.389 98.152C161.209 99.5655 163.332 100.613 165.622 101.228L171.943 102.94L176.094 98.8394C177.359 94.5639 168.799 91.2213 168.799 91.2213Z" fill="#895A30"/>
<path d="M232.734 89.3055C231.167 92.8121 229.634 96.0723 227.967 99.4043C226.301 102.736 224.61 106.028 222.742 109.298C220.873 112.568 218.881 115.818 216.621 119.078C215.502 120.698 214.261 122.318 212.85 123.948C211.335 125.746 209.61 127.386 207.703 128.839C206.445 129.781 205.058 130.567 203.575 131.177C203.105 131.341 202.669 131.505 202.154 131.648L201.371 131.843C200.976 131.932 200.577 131.997 200.173 132.038C198.809 132.179 197.429 132.088 196.101 131.771C194.44 131.346 192.862 130.685 191.424 129.813C190.347 129.197 189.318 128.512 188.347 127.762C185.118 125.179 182.141 122.342 179.451 119.284C176.844 116.413 174.383 113.532 172.022 110.59C169.661 107.648 167.39 104.756 165.062 101.67L177.437 94.3501C181.342 100.126 185.664 105.657 190.372 110.908C192.536 113.339 194.92 115.599 197.499 117.664C197.999 118.038 198.526 118.381 199.077 118.689C199.491 118.946 199.905 119.048 199.614 118.956C199.221 118.856 198.809 118.836 198.405 118.894C198.243 118.908 198.082 118.936 197.924 118.976H197.835C197.779 118.976 197.779 118.976 197.768 118.976C198.022 118.824 198.265 118.656 198.495 118.474C199.516 117.624 200.443 116.683 201.259 115.664C202.209 114.496 203.161 113.184 204.067 111.82C205.92 108.985 207.608 106.063 209.125 103.064C210.691 99.9885 212.202 96.9126 213.6 93.7143C214.999 90.5153 216.331 87.2652 217.461 84.1587L232.734 89.3055Z" fill="#018762"/>
<g opacity="0.6">
<path opacity="0.6" d="M232.733 89.3037C231.167 92.8103 229.634 96.0704 227.966 99.4024C226.3 102.734 224.609 106.026 222.742 109.296C220.873 112.566 218.881 115.816 216.621 119.077C215.502 120.696 214.26 122.316 212.85 123.946C211.335 125.744 209.609 127.384 207.703 128.838C206.445 129.779 205.057 130.565 203.575 131.175C203.104 131.339 202.669 131.503 202.153 131.646L201.37 131.841C200.976 131.93 200.576 131.995 200.173 132.036C198.809 132.177 197.429 132.087 196.1 131.77C194.439 131.344 192.861 130.683 191.423 129.812C190.346 129.195 189.317 128.51 188.346 127.76C185.117 125.177 182.14 122.34 179.45 119.282C176.844 116.412 174.382 113.53 172.021 110.588C169.66 107.646 167.389 104.754 165.062 101.668L177.436 94.3482C181.342 100.124 185.663 105.655 190.372 110.906C192.536 113.338 194.92 115.598 197.498 117.662C197.998 118.037 198.526 118.379 199.076 118.688C199.49 118.944 199.905 119.046 199.613 118.954C199.22 118.854 198.808 118.834 198.405 118.892C198.242 118.906 198.082 118.934 197.924 118.974H197.834C197.779 118.974 197.779 118.974 197.767 118.974C198.022 118.822 198.264 118.654 198.494 118.472C199.516 117.622 200.442 116.682 201.258 115.663C202.209 114.494 203.16 113.182 204.067 111.818C205.92 108.983 207.608 106.061 209.124 103.062C210.691 99.9866 212.202 96.9108 213.6 93.7124C214.999 90.5135 216.33 87.2635 217.46 84.157L232.733 89.3037Z" fill="white"/>
</g>
<path d="M262.027 73.5662C257.831 80.743 242.894 108.086 241.081 124.962C234.467 109.584 235.911 75.5654 235.911 75.5654C231.198 75.9863 226.575 77.022 222.182 78.6412C220.766 79.1742 219.539 80.0559 218.637 81.1888C217.734 82.3216 217.191 83.6612 217.069 85.0593C215.781 102.661 216.388 120.336 218.881 137.829C223.525 170.945 227.832 222.442 227.832 222.442C227.832 222.442 264.812 221.028 293.345 215.512C289.865 190.198 277.96 147.774 277.848 136.414C277.714 121.794 278.083 93.2102 278.586 81.276C278.671 79.5911 278.095 77.9342 276.962 76.6048C275.829 75.2753 274.214 74.3611 272.41 74.0276C268.988 73.4464 265.495 73.2911 262.027 73.5662Z" fill="#018762"/>
<path opacity="0.7" d="M262.027 73.5663C257.831 80.7431 242.894 108.086 241.081 124.962C234.467 109.584 235.911 75.5656 235.911 75.5656C231.198 75.9864 226.575 77.0221 222.182 78.6413C220.766 79.1743 219.539 80.0561 218.637 81.1889C217.734 82.3217 217.191 83.6613 217.069 85.0594C215.781 102.661 216.388 120.336 218.881 137.829C223.525 170.945 227.832 222.443 227.832 222.443C227.832 222.443 264.812 221.028 293.345 215.512C289.865 190.198 277.96 147.774 277.848 136.414C277.714 121.794 278.083 93.2001 278.586 81.2659C278.692 79.6323 278.166 78.0168 277.099 76.704C276.033 75.3912 274.495 74.4652 272.757 74.0892C269.225 73.4548 265.613 73.2788 262.027 73.5663Z" fill="white"/>
<path d="M253.311 216.947C246.888 184.477 241.797 136.834 241.383 131.102H241.953C242.368 136.834 247.47 184.415 253.881 216.886L253.311 216.947Z" fill="white"/>
<path d="M250.111 159.185H216.007C215.317 159.156 214.658 158.924 214.125 158.523C213.593 158.122 213.217 157.573 213.052 156.96L201.65 108.394C201.568 108.129 201.554 107.849 201.611 107.579C201.669 107.308 201.796 107.053 201.981 106.836C202.167 106.618 202.406 106.445 202.68 106.329C202.953 106.213 203.252 106.159 203.553 106.169H237.646C238.337 106.195 239 106.427 239.535 106.828C240.069 107.229 240.447 107.778 240.611 108.394L252.013 156.96C252.097 157.225 252.11 157.504 252.052 157.775C251.995 158.046 251.869 158.3 251.683 158.518C251.498 158.735 251.257 158.908 250.985 159.025C250.712 159.141 250.412 159.195 250.111 159.185Z" fill="white"/>
<path d="M249.048 159.595H214.361C213.661 159.565 212.989 159.329 212.446 158.92C211.904 158.512 211.52 157.954 211.351 157.33L199.749 107.943C199.666 107.673 199.654 107.388 199.713 107.112C199.773 106.837 199.903 106.578 200.093 106.357C200.282 106.136 200.526 105.96 200.805 105.841C201.083 105.723 201.389 105.667 201.695 105.678H236.382C237.083 105.707 237.755 105.944 238.297 106.352C238.84 106.761 239.223 107.319 239.391 107.943L250.983 157.33C251.069 157.599 251.083 157.884 251.024 158.16C250.967 158.436 250.838 158.695 250.648 158.917C250.459 159.138 250.216 159.315 249.938 159.433C249.659 159.551 249.354 159.607 249.048 159.595Z" fill="#018762"/>
<path d="M253.02 131.728L244.393 131.431C243.356 131.398 242.323 131.566 241.361 131.923L236.885 133.564C236.465 133.716 236.083 133.944 235.762 134.235C235.44 134.526 235.187 134.873 235.015 135.256C234.844 135.639 234.759 136.05 234.765 136.464C234.771 136.877 234.868 137.285 235.05 137.664L236.841 141.212C237.202 141.899 237.81 142.453 238.564 142.777C239.319 143.103 240.171 143.179 240.981 142.996L245.915 141.868C245.915 141.868 255.179 141.192 255.514 136.742L253.02 131.728Z" fill="#895A30"/>
<path d="M276.841 77.9641C278.978 81.0399 280.936 83.849 282.861 86.8632C284.786 89.8775 286.677 92.861 288.456 95.9774C290.234 99.0947 291.925 102.313 293.457 105.759C294.253 107.563 294.933 109.408 295.493 111.285C296.215 113.573 296.547 115.948 296.478 118.328V118.728C296.482 118.796 296.482 118.865 296.478 118.933C296.478 119.302 296.366 119.671 296.287 120.04C296.21 120.41 296.109 120.696 295.997 121.066C295.885 121.435 295.762 121.63 295.639 121.916C295.211 122.804 294.662 123.638 294.005 124.398C293.091 125.445 292.052 126.394 290.905 127.228C289.146 128.498 287.275 129.633 285.311 130.621C281.858 132.351 278.301 133.906 274.659 135.276C271.135 136.65 267.622 137.9 264.086 139.08C260.55 140.258 257.07 141.396 253.388 142.524L249.125 129.606C252.482 128.765 255.906 127.73 259.252 126.684C262.598 125.638 265.966 124.47 269.143 123.25C272.262 122.068 275.303 120.723 278.251 119.22C279.496 118.588 280.681 117.865 281.798 117.057C282.092 116.853 282.355 116.615 282.581 116.349C282.485 116.449 282.41 116.564 282.357 116.688C282.357 116.78 282.302 116.842 282.245 116.954C282.202 117.075 282.167 117.199 282.145 117.323C282.098 117.481 282.067 117.643 282.055 117.805C282.055 117.867 282.055 117.877 282.055 117.857V117.785C281.978 116.812 281.771 115.851 281.44 114.924C280.993 113.582 280.462 112.264 279.851 110.977C278.483 108.14 276.937 105.377 275.218 102.703C273.474 99.9553 271.616 97.2084 269.624 94.5012C267.633 91.7947 265.596 89.0983 263.548 86.6377L276.841 77.9641Z" fill="#018762"/>
<g opacity="0.7">
<path opacity="0.7" d="M276.842 77.9641C278.979 81.0399 280.936 83.849 282.862 86.8632C284.786 89.8775 286.677 92.861 288.456 95.9774C290.235 99.0947 291.924 102.313 293.457 105.759C294.253 107.563 294.933 109.408 295.493 111.285C296.215 113.573 296.548 115.948 296.478 118.328V118.728C296.482 118.796 296.482 118.865 296.478 118.933C296.478 119.302 296.366 119.671 296.288 120.04C296.21 120.41 296.109 120.696 295.997 121.066C295.886 121.435 295.763 121.63 295.64 121.916C295.212 122.804 294.663 123.638 294.006 124.398C293.092 125.445 292.052 126.394 290.906 127.228C289.147 128.498 287.275 129.633 285.311 130.621C281.858 132.351 278.302 133.906 274.659 135.276C271.135 136.65 267.621 137.9 264.086 139.08C260.55 140.258 257.07 141.396 253.389 142.524L249.126 129.606C252.483 128.765 255.907 127.73 259.253 126.684C262.598 125.638 265.966 124.47 269.143 123.25C272.262 122.068 275.303 120.723 278.251 119.22C279.496 118.588 280.682 117.865 281.798 117.057C282.092 116.853 282.355 116.615 282.582 116.349C282.485 116.449 282.41 116.564 282.358 116.688C282.358 116.78 282.302 116.842 282.246 116.954C282.202 117.075 282.168 117.199 282.145 117.323C282.098 117.481 282.068 117.643 282.055 117.805C282.055 117.867 282.055 117.877 282.055 117.857V117.785C281.978 116.812 281.771 115.851 281.44 114.924C280.993 113.582 280.462 112.264 279.852 110.977C278.483 108.14 276.937 105.377 275.219 102.703C273.474 99.9553 271.616 97.2084 269.624 94.5012C267.633 91.7947 265.596 89.0983 263.549 86.6377L276.842 77.9641Z" fill="white"/>
</g>
<path d="M265.518 113.542C265.443 113.541 265.37 113.523 265.306 113.489C265.24 113.455 265.187 113.406 265.148 113.348C265.115 113.303 265.093 113.252 265.082 113.199C265.071 113.147 265.072 113.092 265.084 113.039C265.097 112.987 265.121 112.937 265.155 112.893C265.189 112.849 265.232 112.812 265.283 112.784L267.028 111.758C268.658 110.817 269.936 109.445 270.696 107.823C271.455 106.2 271.659 104.405 271.28 102.675L267.767 86.3733C267.509 85.1544 266.811 84.0506 265.784 83.2405C264.758 82.4304 263.463 81.9613 262.109 81.9092C260.756 81.857 259.422 82.2248 258.325 82.953C257.228 83.6812 256.431 84.7274 256.063 85.9221L251.084 101.906C250.54 103.595 250.57 105.397 251.17 107.07C251.769 108.744 252.91 110.211 254.441 111.276L256.097 112.425C256.189 112.492 256.25 112.589 256.265 112.697C256.279 112.805 256.247 112.913 256.174 112.999C256.14 113.041 256.096 113.076 256.046 113.103C255.996 113.128 255.94 113.146 255.884 113.152C255.826 113.159 255.768 113.155 255.712 113.141C255.657 113.128 255.605 113.104 255.56 113.07L253.993 111.932C252.31 110.771 251.053 109.169 250.388 107.338C249.722 105.507 249.679 103.533 250.267 101.68L255.257 85.6966C255.686 84.3318 256.602 83.1383 257.859 82.3079C259.117 81.4775 260.642 81.0582 262.191 81.1174C263.739 81.1764 265.221 81.7106 266.399 82.634C267.576 83.5573 268.381 84.8165 268.684 86.2093L272.197 102.521C272.612 104.411 272.39 106.373 271.562 108.145C270.732 109.917 269.335 111.417 267.554 112.446L265.797 113.47C265.759 113.499 265.713 113.52 265.666 113.533C265.618 113.545 265.567 113.549 265.518 113.542Z" fill="#263238"/>
<path d="M268.204 86.7099L255.639 86.228C255.58 86.2254 255.521 86.2121 255.469 86.1891C255.416 86.1659 255.368 86.1335 255.328 86.0935C255.288 86.0535 255.258 86.0067 255.239 85.9559C255.219 85.9051 255.21 85.8513 255.213 85.7974C255.224 85.6904 255.278 85.5911 255.366 85.5191C255.453 85.447 255.566 85.4073 255.683 85.4078L268.237 85.8896C268.296 85.8923 268.354 85.9054 268.407 85.9286C268.46 85.9516 268.507 85.9841 268.548 86.0241C268.587 86.0641 268.617 86.1108 268.637 86.1617C268.657 86.2125 268.666 86.2664 268.663 86.3203C268.661 86.3736 268.648 86.4263 268.623 86.475C268.6 86.5237 268.566 86.5675 268.523 86.6038C268.48 86.6401 268.43 86.6682 268.375 86.6864C268.32 86.7046 268.262 86.7126 268.204 86.7099Z" fill="#263238"/>
<path d="M262.094 81.9309C261.978 81.9284 261.868 81.8858 261.784 81.8116C261.702 81.7374 261.652 81.6372 261.647 81.531C261.647 79.4806 260.953 75.9229 258.86 75.1437C258.803 75.1259 258.749 75.0975 258.704 75.0601C258.658 75.0227 258.622 74.9771 258.597 74.9263C258.571 74.8754 258.558 74.8203 258.555 74.7644C258.554 74.7083 258.566 74.6528 258.588 74.6009C258.611 74.549 258.645 74.502 258.689 74.4628C258.733 74.4234 258.785 74.3927 258.841 74.3726C258.899 74.3524 258.959 74.343 259.021 74.3452C259.081 74.3473 259.141 74.3609 259.196 74.3851C262.296 75.5539 262.553 80.9056 262.553 81.5618C262.553 81.6698 262.508 81.7737 262.427 81.852C262.345 81.9303 262.234 81.9769 262.116 81.9822L262.094 81.9309Z" fill="#263238"/>
<path d="M223.659 95.865H223.57C223.454 95.8429 223.353 95.7802 223.288 95.6899C223.223 95.5996 223.2 95.489 223.223 95.383C224.7 88.6475 230.809 78.0157 236.191 74.8784C236.24 74.8505 236.295 74.8317 236.352 74.8233C236.409 74.8149 236.467 74.8169 236.524 74.8293C236.579 74.8417 236.633 74.8643 236.679 74.8955C236.726 74.9268 236.765 74.9664 236.795 75.0118C236.827 75.0557 236.851 75.1053 236.861 75.1575C236.872 75.2096 236.871 75.2632 236.859 75.3151C236.846 75.367 236.822 75.4159 236.788 75.459C236.754 75.502 236.71 75.5382 236.661 75.5654C231.458 78.5796 225.528 88.8937 224.096 95.5268C224.078 95.6208 224.024 95.7065 223.944 95.7682C223.865 95.8299 223.764 95.864 223.659 95.865Z" fill="#263238"/>
<path d="M227.33 96.9219C226.637 98.5529 225.092 99.537 223.973 99.1159C222.855 98.6957 222.418 97.0656 223.112 95.395C223.805 93.7235 225.349 92.7799 226.468 93.2112C227.587 93.6415 228.035 95.2918 227.33 96.9219Z" fill="white"/>
<path d="M256.868 112.804C256.868 113.562 256.354 114.168 255.806 114.147C255.258 114.126 254.832 113.491 254.866 112.722C254.9 111.953 255.381 111.348 255.929 111.379C256.477 111.41 256.903 112.035 256.868 112.804Z" fill="white"/>
<path d="M266.514 113.171C266.514 113.929 266.01 114.534 265.45 114.513C264.891 114.493 264.489 113.857 264.522 113.089C264.555 112.319 265.025 111.725 265.641 111.745C266.256 111.766 266.547 112.433 266.514 113.171Z" fill="white"/>
<path d="M456.259 98.95L455.14 98.8883C455.326 96.7053 455.016 94.5113 454.227 92.4445C453.439 90.3773 452.189 88.4832 450.56 86.882C448.93 85.2808 446.956 84.0074 444.76 83.1426C442.564 82.2779 440.197 81.8407 437.808 81.8588V80.8335C440.351 80.8137 442.87 81.2783 445.206 82.1979C447.543 83.1174 449.645 84.4718 451.38 86.1752C453.115 87.8785 454.445 89.8936 455.284 92.0927C456.124 94.292 456.455 96.627 456.259 98.95Z" fill="#018762"/>
<path d="M456.849 103.249L456.2 111.738L457.319 111.81L457.968 103.32L456.849 103.249Z" fill="#018762"/>
<path d="M437.808 84.4222H360.604C356.387 84.4857 352.348 85.984 349.27 88.6256C346.193 91.2672 344.298 94.8633 343.954 98.7141L343.249 108.238C343.089 110.071 343.348 111.915 344.007 113.651C344.667 115.387 345.716 116.978 347.084 118.323C348.452 119.667 350.112 120.736 351.955 121.46C353.8 122.185 355.789 122.549 357.795 122.531H435L449.971 130.989L452.343 98.7141C452.505 96.8822 452.248 95.0393 451.589 93.3033C450.93 91.5668 449.884 89.9755 448.516 88.6308C447.148 87.286 445.49 86.2172 443.646 85.4925C441.803 84.7679 439.814 84.4034 437.808 84.4222Z" fill="#018762"/>
<path d="M433.892 98.0672H362.383V100.446H433.892V98.0672Z" fill="white"/>
<path d="M433.265 106.504H380.173V108.882H433.265V106.504Z" fill="white"/>
<path d="M321.665 135.376H400.571C402.623 135.356 404.656 135.727 406.542 136.468C408.428 137.208 410.125 138.3 411.523 139.675C412.923 141.05 413.994 142.677 414.668 144.453C415.343 146.227 415.607 148.113 415.441 149.986L414.725 159.726C414.371 163.661 412.432 167.335 409.288 170.035C406.143 172.735 402.015 174.267 397.707 174.336H318.789L302.207 182.999L304.647 149.986C304.999 146.049 306.935 142.374 310.082 139.674C313.227 136.974 317.356 135.442 321.665 135.376Z" fill="white"/>
<path opacity="0.15" d="M321.665 135.376H400.571C402.623 135.356 404.656 135.727 406.542 136.468C408.428 137.208 410.125 138.3 411.523 139.675C412.923 141.05 413.994 142.677 414.668 144.453C415.343 146.227 415.607 148.113 415.441 149.986L414.725 159.726C414.371 163.661 412.432 167.335 409.288 170.035C406.143 172.735 402.015 174.267 397.707 174.336H318.789L302.207 182.999L304.647 149.986C304.999 146.049 306.935 142.374 310.082 139.674C313.227 136.974 317.356 135.442 321.665 135.376Z" fill="#018762"/>
<path opacity="0.5" d="M396.565 149.329H323.433V151.769H396.565V149.329Z" fill="#018762"/>
<path opacity="0.5" d="M351.697 157.953H322.796V160.393H351.697V157.953Z" fill="#018762"/>
<path opacity="0.5" d="M377.242 157.953H358.779V160.393H377.242V157.953Z" fill="#018762"/>
</svg>
